<?xml version="1.0" encoding="utf-8"?>
<!-- Generator: Adobe Illustrator 27.5.0, SVG Export Plug-In . SVG Version: 6.00 Build 0)  -->
<svg version="1.1" id="Layer_1" xmlns="http://www.w3.org/2000/svg" xmlns:xlink="http://www.w3.org/1999/xlink" x="0px" y="0px"
	 viewBox="0 0 225.7 94.2" style="enable-background:new 0 0 225.7 94.2;" xml:space="preserve">
<style type="text/css">
	.st0{fill:#FFFFFF;}
</style>
<g>
	<g>
		<g>
			<g>
				<g>
					<path class="st0" d="M95.4,16.5h4.2v22.5h-4.2V16.5z M96.9,16.5h13.2v4.1H96.9V16.5z M96.9,26h11.5v4.1H96.9V26z"/>
				</g>
				<g>
					<path class="st0" d="M113,16.5h4.2v4.2H113V16.5z M113,23h4.2v16.1H113V23z"/>
				</g>
				<g>
					<path class="st0" d="M121.2,23h4.2v16.1h-4.2V23z M130.5,29.3c0-0.8-0.2-1.4-0.7-1.8c-0.4-0.4-1.1-0.7-1.9-0.7
						c-0.8,0-1.4,0.2-1.8,0.7c-0.4,0.4-0.6,1.1-0.6,1.9l-0.3-3.6c0.5-1,1.1-1.8,1.7-2.3c0.7-0.5,1.5-0.8,2.5-0.8
						c1.7,0,3,0.6,3.9,1.7c0.9,1.1,1.4,2.8,1.4,4.8v9.8h-4.2V29.3z"/>
				</g>
				<g>
					<path class="st0" d="M139.5,38.1c-0.9-0.8-1.3-2.1-1.3-3.7c0-1.6,0.5-2.8,1.4-3.6c1-0.8,2.4-1.2,4.3-1.2h4l0.2,3.2h-4.2
						c-0.6,0-1.1,0.1-1.4,0.4c-0.3,0.3-0.5,0.6-0.5,1.2c0,0.5,0.2,0.9,0.6,1.2c0.4,0.3,1,0.4,1.8,0.4c1.1,0,2-0.1,2.5-0.4
						c0.6-0.3,0.8-0.7,0.8-1.2l0.3,2.3c-0.1,0.6-0.3,1.1-0.8,1.5c-0.5,0.4-1.1,0.7-1.8,0.9s-1.5,0.3-2.2,0.3
						C141.6,39.3,140.3,38.9,139.5,38.1z M147.8,28.9c0-0.7-0.2-1.3-0.7-1.7c-0.5-0.4-1.2-0.6-2.1-0.6c-0.6,0-1.2,0.1-1.8,0.3
						c-0.6,0.2-1.1,0.5-1.6,0.8l-2.6-2.6c0.6-0.7,1.5-1.3,2.5-1.7c1.1-0.4,2.2-0.6,3.5-0.6c1.4,0,2.6,0.2,3.6,0.7
						c1,0.5,1.7,1.2,2.3,2c0.5,0.9,0.8,2,0.8,3.2v10.3h-3.9V28.9z"/>
				</g>
				<g>
					<path class="st0" d="M155.8,23h4.2v16.1h-4.2V23z M165.1,29.3c0-0.8-0.2-1.4-0.7-1.8c-0.4-0.4-1.1-0.7-1.9-0.7
						c-0.8,0-1.4,0.2-1.8,0.7c-0.4,0.4-0.6,1.1-0.6,1.9l-0.3-3.6c0.5-1,1.1-1.8,1.7-2.3c0.7-0.5,1.5-0.8,2.5-0.8
						c1.7,0,3,0.6,3.9,1.7c0.9,1.1,1.4,2.8,1.4,4.8v9.8h-4.2V29.3z"/>
				</g>
				<g>
					<path class="st0" d="M178.1,39.3c0,0-0.5-0.3-1.6-0.9c-1.1-0.6-1.9-1.4-2.5-2.5c-0.6-1.1-0.9-2.5-0.9-4v-1.7
						c0-1.6,0.3-2.9,0.9-4c0.6-1.1,1.4-1.9,2.5-2.5c1.1-0.6,2.4-0.9,3.9-0.9c0.9,0,1.7,0.1,2.5,0.3c0.8,0.2,1.5,0.5,2.1,0.9
						c0.6,0.4,1.1,0.8,1.5,1.4l-2.7,2.7c-0.4-0.4-0.9-0.6-1.4-0.8c-0.5-0.2-1.1-0.3-1.7-0.3c-1.1,0-1.9,0.3-2.5,0.9
						s-0.9,1.4-0.9,2.4v1.7c0,1.1,0.3,1.9,0.9,2.5c0.6,0.6,1.4,0.9,2.5,0.9c0.6,0,1.1-0.1,1.7-0.3s1-0.5,1.4-0.9l2.7,2.8
						c-0.4,0.5-0.9,1-1.6,1.4c-0.6,0.4-1.3,0.7-2.1,0.9c-0.8,0.2-1.6,0.3-2.5,0.3C178.8,39.3,178.1,39.3,178.1,39.3z"/>
				</g>
				<g>
					<path class="st0" d="M193.9,39.3c0,0-0.6-0.3-1.7-0.8c-1.1-0.6-1.9-1.4-2.5-2.5c-0.6-1.1-0.9-2.4-0.9-3.9v-1.8
						c0-1.6,0.3-2.9,0.8-4.1c0.6-1.1,1.4-2,2.4-2.6c1.1-0.6,2.3-0.9,3.8-0.9c1.4,0,2.6,0.4,3.6,1.1c1,0.7,1.8,1.7,2.3,3.1
						c0.5,1.3,0.8,3,0.8,4.8v1.1h-11v-2.9h7.1l0-0.4c-0.1-0.9-0.4-1.6-0.9-2.2c-0.5-0.5-1.1-0.8-1.9-0.8c-1,0-1.8,0.3-2.4,0.9
						c-0.6,0.6-0.8,1.5-0.8,2.6v2c0,1.1,0.3,1.9,0.9,2.5c0.6,0.6,1.5,0.9,2.6,0.9c0.6,0,1.1-0.1,1.7-0.3c0.6-0.2,1.1-0.5,1.5-0.9
						l2.8,2.5c-0.8,0.8-1.8,1.4-2.8,1.8c-1,0.4-2.1,0.6-3.2,0.6C194.7,39.3,193.9,39.3,193.9,39.3z"/>
				</g>
			</g>
			<g>
				<g>
					<path class="st0" d="M101.7,45.4h2.7l8.6,22.5h-4.6L103,52.5l-5.4,15.4H93L101.7,45.4z M97.2,60.2H109v4.1H97.2V60.2z"/>
				</g>
				<g>
					<path class="st0" d="M119.9,68.1c0,0-0.5-0.3-1.6-0.9c-1.1-0.6-1.9-1.4-2.5-2.5c-0.6-1.1-0.9-2.5-0.9-4v-1.7
						c0-1.6,0.3-2.9,0.9-4c0.6-1.1,1.4-1.9,2.5-2.5c1.1-0.6,2.4-0.9,3.9-0.9c0.9,0,1.7,0.1,2.5,0.3c0.8,0.2,1.5,0.5,2.1,0.9
						c0.6,0.4,1.1,0.8,1.5,1.4l-2.7,2.7c-0.4-0.4-0.9-0.6-1.4-0.8c-0.5-0.2-1.1-0.3-1.7-0.3c-1.1,0-1.9,0.3-2.5,0.9
						c-0.6,0.6-0.9,1.4-0.9,2.4v1.7c0,1.1,0.3,1.9,0.9,2.5c0.6,0.6,1.4,0.9,2.5,0.9c0.6,0,1.1-0.1,1.7-0.3c0.5-0.2,1-0.5,1.4-0.9
						l2.7,2.8c-0.4,0.5-0.9,1-1.6,1.4c-0.6,0.4-1.3,0.7-2.1,0.9s-1.6,0.3-2.5,0.3C120.7,68.1,119.9,68.1,119.9,68.1z"/>
				</g>
				<g>
					<path class="st0" d="M131.7,66.9c-0.9-0.8-1.3-2.1-1.3-3.7c0-1.6,0.5-2.8,1.4-3.6c1-0.8,2.4-1.2,4.3-1.2h4l0.2,3.2h-4.2
						c-0.6,0-1.1,0.1-1.4,0.4c-0.3,0.3-0.5,0.6-0.5,1.2c0,0.5,0.2,0.9,0.6,1.2s1,0.4,1.8,0.4c1.1,0,2-0.1,2.5-0.4
						c0.6-0.3,0.8-0.7,0.8-1.2l0.3,2.3c-0.1,0.6-0.3,1.1-0.8,1.5c-0.5,0.4-1.1,0.7-1.8,0.9c-0.7,0.2-1.5,0.3-2.2,0.3
						C133.9,68.1,132.6,67.7,131.7,66.9z M140.1,57.7c0-0.7-0.2-1.3-0.7-1.7c-0.5-0.4-1.2-0.6-2.1-0.6c-0.6,0-1.2,0.1-1.8,0.3
						c-0.6,0.2-1.1,0.5-1.6,0.8l-2.6-2.6c0.6-0.7,1.5-1.3,2.5-1.7c1.1-0.4,2.2-0.6,3.5-0.6c1.4,0,2.6,0.2,3.6,0.7
						c1,0.5,1.7,1.2,2.3,2c0.5,0.9,0.8,2,0.8,3.2v10.3h-3.9V57.7z"/>
				</g>
				<g>
					<path class="st0" d="M150.1,67.3c-0.8-0.5-1.4-1.3-1.8-2.4c-0.4-1-0.6-2.3-0.6-3.8v-2.6c0-1.5,0.2-2.7,0.6-3.8
						c0.4-1.1,1-1.9,1.8-2.4c0.8-0.5,1.8-0.8,2.9-0.8c0.9,0,1.6,0.3,2.3,0.8c0.7,0.5,1.3,1.2,1.7,2.2l-0.3,3.6c0-0.5-0.1-1-0.3-1.4
						c-0.2-0.4-0.5-0.7-0.8-0.9c-0.4-0.2-0.8-0.3-1.3-0.3c-0.8,0-1.4,0.3-1.9,0.8c-0.4,0.5-0.7,1.3-0.7,2.3v2.6c0,1,0.2,1.7,0.7,2.2
						c0.4,0.5,1.1,0.8,1.9,0.8c0.5,0,0.9-0.1,1.3-0.3c0.4-0.2,0.6-0.5,0.8-0.9c0.2-0.4,0.3-0.8,0.3-1.3l0.2,3.7
						c-0.3,0.9-0.8,1.6-1.5,2c-0.7,0.5-1.5,0.7-2.4,0.7C151.9,68.1,150.9,67.8,150.1,67.3z M156.8,45.4h4.2v22.5h-4.2V45.4z"/>
				</g>
				<g>
					<path class="st0" d="M169.8,68.1c0,0-0.5-0.3-1.6-0.8c-1.1-0.6-1.9-1.4-2.5-2.5c-0.6-1.1-0.9-2.4-0.9-3.9v-1.8
						c0-1.6,0.3-2.9,0.8-4.1c0.6-1.1,1.4-2,2.4-2.6c1.1-0.6,2.3-0.9,3.8-0.9c1.4,0,2.6,0.4,3.6,1.1c1,0.7,1.8,1.7,2.3,3.1
						c0.5,1.3,0.8,2.9,0.8,4.8v1.1h-11v-2.9h7.1l0-0.4c-0.1-0.9-0.4-1.6-0.9-2.2c-0.5-0.5-1.1-0.8-1.9-0.8c-1,0-1.8,0.3-2.4,0.9
						c-0.6,0.6-0.8,1.5-0.8,2.6v2c0,1.1,0.3,1.9,0.9,2.5c0.6,0.6,1.5,0.9,2.6,0.9c0.6,0,1.1-0.1,1.7-0.3c0.6-0.2,1.1-0.5,1.5-0.9
						l2.8,2.5c-0.8,0.8-1.8,1.4-2.8,1.8c-1,0.4-2.1,0.6-3.2,0.6C170.5,68.1,169.8,68.1,169.8,68.1z"/>
				</g>
				<g>
					<path class="st0" d="M182.2,51.8h4.2v16.1h-4.2V51.8z M191.5,58.6c0-0.9-0.2-1.7-0.7-2.2c-0.5-0.5-1.1-0.8-2-0.8
						c-0.8,0-1.4,0.2-1.8,0.7c-0.4,0.4-0.6,1.1-0.6,1.8l-0.3-3.6c0.5-1,1.1-1.7,1.8-2.3c0.7-0.5,1.5-0.8,2.5-0.8
						c1.1,0,2.1,0.3,2.9,0.8c0.8,0.5,1.4,1.3,1.9,2.4c0.4,1.1,0.6,2.3,0.6,3.8v9.3h-4.2V58.6z M200.9,58.6c0-0.9-0.2-1.7-0.7-2.2
						c-0.4-0.5-1.1-0.8-1.9-0.8c-0.8,0-1.4,0.2-1.9,0.7c-0.4,0.5-0.7,1.2-0.7,2.1l-0.8-3.7c0.5-1,1.2-1.8,2-2.4
						c0.8-0.6,1.7-0.8,2.7-0.8c1.2,0,2.1,0.3,3,0.8c0.8,0.5,1.4,1.3,1.9,2.4s0.6,2.3,0.6,3.8v9.3h-4.2V58.6z"/>
				</g>
				<g>
					<path class="st0" d="M207.2,51.8h4l5.4,14l-2.7,3.4L207.2,51.8z M222,51.8l-7.2,19.8c-0.3,0.7-0.6,1.3-1,1.7
						c-0.4,0.4-0.9,0.7-1.5,0.9c-0.6,0.2-1.3,0.3-2.2,0.3h-0.9v-4.1h0.9c0.5,0,0.8-0.1,1.1-0.3c0.3-0.2,0.5-0.5,0.7-1l6-17.4H222z"
						/>
				</g>
			</g>
		</g>
		<g>
			<g>
				<g>
					<path class="st0" d="M69.4,27.3c-6.1-4.4-13.5-7.1-21.6-7.1c-20.2,0-36.6,16.4-36.6,36.6c0,0.9,0,1.9,0.1,2.8
						c-5.8-6.1-9.3-14.4-9.3-23.4c0-18.9,15.3-34.2,34.2-34.2C52.2,1.9,65.5,12.6,69.4,27.3z"/>
				</g>
				<g>
					<path class="st0" d="M76.6,34.3c-1-1.2-2.2-2.3-3.4-3.4c0.7,0.6,1.5,1.3,2.2,1.9C75.8,33.3,76.2,33.8,76.6,34.3z"/>
				</g>
				<g>
					<path class="st0" d="M84.4,56.8C84.4,77,68,93.4,47.8,93.4c-9.9,0-18.9-4-25.5-10.4c-0.4-0.5-0.8-1-1.2-1.5c0,0,0,0,0,0
						c-4.4-5.6-7.1-12.4-7.7-19.9c-0.1-0.9-0.1-1.7-0.1-2.6c0-20.2,16.4-36.6,36.6-36.6c7.3,0,14.1,2.1,19.7,5.8
						c1.3,0.8,2.5,1.7,3.6,2.6c0,0,0,0,0,0c1.2,1.1,2.3,2.2,3.4,3.4c0,0,0,0,0,0C81.5,40.5,84.4,48.3,84.4,56.8z"/>
				</g>
				<g>
					<path class="st0" d="M76.6,34.3c-1-1.2-2.2-2.3-3.4-3.4c0.7,0.6,1.5,1.3,2.2,1.9C75.8,33.3,76.2,33.8,76.6,34.3z"/>
				</g>
			</g>
		</g>
	</g>
</g>
</svg>
