<?xml version="1.0" encoding="UTF-8"?><svg id="Layer_1" xmlns="http://www.w3.org/2000/svg" viewBox="0 0 180 60"><defs><style>.cls-1{fill:#fff;stroke-width:0px;}</style></defs><path class="cls-1" d="m88.29,37.91c-.99-.83-2.55-1.24-4.71-1.24h-2.19v-3.09h6.38c.2,0,.29-.09.29-.29v-2.46c0-.2-.09-.29-.29-.29h-9.57c-.23,0-.32.09-.32.29v15.99c0,.2.11.29.32.29h5.2c2.23,0,3.85-.45,4.87-1.4s1.49-2.3,1.49-4.12c.05-1.64-.47-2.86-1.46-3.69Zm-2.7,5.72c-.47.38-1.19.61-2.16.61h-2v-4.93h2.03c.99,0,1.71.18,2.16.56.45.36.7.97.7,1.82-.02.88-.27,1.53-.72,1.94Z"/><path class="cls-1" d="m118.25,43.97h-1.28l-4.05-13.25c-.07-.16-.18-.25-.34-.25h-3.81c-.16,0-.25.09-.32.25l-4.08,13.25h-1.28c-.2,0-.29.09-.29.29v5.38c0,.2.09.29.29.29h2.82c.09,0,.16-.02.2-.09.07-.07.09-.14.09-.2v-2.57h8.97v2.57c0,.09.02.16.09.2.07.07.14.09.2.09h2.82c.2,0,.29-.09.29-.29v-5.38c-.02-.18-.11-.29-.32-.29Zm-8.61-6.51c.16-.68.32-1.33.47-1.98.16-.65.32-1.28.45-1.94h.05c.16.65.29,1.28.45,1.94.16.65.32,1.28.45,1.94l1.73,6.56h-5.36l1.76-6.51Z"/><path class="cls-1" d="m132.92,30.5h-3.15c-.14,0-.25.07-.34.23l-3.33,6.06c-.43.86-.83,1.6-1.17,2.23-.34.65-.63,1.24-.88,1.78-.25.54-.47,1.08-.7,1.6h-.05c.09-.81.16-1.69.2-2.61s.07-1.94.07-3v-5.99c0-.2-.09-.29-.29-.29h-2.79c-.2,0-.29.09-.29.29v15.99c0,.2.09.29.29.29h3.15c.14,0,.25-.07.34-.23l3.11-5.74c.54-.99.99-1.85,1.33-2.5s.65-1.26.9-1.78c.25-.5.47-1.01.72-1.49h.05c-.07.81-.14,1.73-.18,2.77s-.07,2.03-.07,3.02v5.65c0,.2.09.29.29.29h2.79c.18,0,.27-.09.27-.29v-15.99c.02-.2-.09-.29-.27-.29Z"/><path class="cls-1" d="m147.27,30.5h-11.6c-.2,0-.29.09-.29.29v2.46c0,.2.09.29.29.29h4.05v13.25c0,.2.09.29.29.29h2.88c.23,0,.32-.09.32-.29v-13.25h4.03c.2,0,.29-.09.29-.29v-2.46c.05-.2-.07-.29-.27-.29Z"/><path class="cls-1" d="m159.79,30.5h-9.73c-.23,0-.32.09-.32.29v15.99c0,.2.11.29.32.29h9.73c.18,0,.27-.09.27-.29v-2.46c0-.2-.09-.29-.27-.29h-6.53v-3.85h5.97c.2,0,.29-.11.29-.32v-2.28c0-.2-.09-.29-.29-.29h-5.97v-3.72h6.53c.18,0,.27-.09.27-.29v-2.46c0-.25-.09-.34-.27-.34Z"/><path class="cls-1" d="m175.97,46.72l-5.05-15.99c-.07-.16-.18-.25-.34-.25h-3.78c-.18,0-.32.09-.38.25l-5.02,15.99c-.05.23.02.34.25.34h3.11c.18,0,.29-.09.34-.25l2.7-9.84c.16-.59.29-1.15.41-1.73.14-.59.25-1.15.38-1.73h.05c.14.59.27,1.15.41,1.71.14.59.27,1.13.43,1.71l2.73,9.87c.05.16.16.25.34.25h3.18c.25.07.36-.05.27-.32Z"/><path class="cls-1" d="m101.18,30.52c-.09,0-.16.05-.18.14l-3.36,8.9h-.14l-3.47-8.92c-.02-.07-.11-.14-.18-.14h-3.13c-.14,0-.25.16-.18.27l5.23,11.98c.02.07.02.14-.02.18-.16.25-.34.45-.59.63-.2.18-.47.29-.74.38s-.59.11-.9.11c-.18,0-.36,0-.54-.02-.09,0-.16,0-.23-.02-.11-.02-.23.07-.23.2v2.37c0,.09.07.18.16.2.07.02.18.05.32.07.27.02.59.07.97,0,.97,0,1.78-.18,2.46-.5.68-.36,1.28-.88,1.8-1.6.5-.7.99-1.6,1.46-2.7l4.84-11.31c.05-.14-.05-.27-.18-.27l-3.18.05h0Z"/><path class="cls-1" d="m80.9,22.8c-.95-.54-1.67-1.28-2.19-2.3-.5-.99-.77-2.21-.77-3.6h0c0-1.4.25-2.61.77-3.58.5-.99,1.24-1.76,2.19-2.28.95-.54,2.05-.79,3.33-.79,1.13,0,2.12.23,3,.68.86.43,1.53,1.04,2.05,1.82s.77,1.64.81,2.61v.09h-3.18l-.02-.11c-.07-.45-.23-.86-.43-1.19-.23-.34-.54-.63-.9-.81-.36-.2-.81-.29-1.31-.29-.61,0-1.1.16-1.58.47-.43.32-.79.77-1.01,1.35-.23.61-.36,1.28-.36,2.12h0c0,.83.11,1.53.36,2.14.23.61.59,1.06,1.01,1.37s.97.47,1.58.47c.47,0,.9-.09,1.26-.27.36-.18.68-.45.92-.81.23-.34.38-.77.47-1.24l.02-.09h3.15v.09c-.05.97-.32,1.82-.83,2.57-.5.77-1.19,1.35-2.05,1.8-.86.43-1.87.68-2.97.68-1.28-.11-2.39-.36-3.33-.9Z"/><path class="cls-1" d="m93.56,22.98c-.74-.38-1.31-.99-1.73-1.73-.41-.77-.61-1.69-.61-2.75v-.02c0-1.06.2-1.96.63-2.73.41-.77.99-1.33,1.73-1.76.74-.41,1.64-.61,2.64-.61s1.89.2,2.66.61c.74.41,1.33.99,1.73,1.73.41.77.63,1.67.63,2.73v.02c0,1.08-.2,1.98-.61,2.75-.41.77-.99,1.33-1.73,1.73-.74.38-1.64.61-2.68.61-1.01,0-1.91-.18-2.66-.59Zm3.6-2.14c.25-.2.45-.5.61-.9s.2-.88.2-1.44v-.02c0-.56-.07-1.04-.23-1.42-.14-.38-.34-.7-.63-.9-.25-.2-.59-.32-.92-.32s-.68.11-.92.32c-.27.2-.45.5-.63.9-.14.38-.23.88-.23,1.42v.02c0,.59.07,1.06.2,1.44.14.38.34.72.63.9.27.2.59.29.95.29.38.05.7-.07.97-.29Z"/><path class="cls-1" d="m107.69,23.52c-1.1-.02-2.07-.25-2.88-.65s-1.42-.97-1.87-1.71c-.43-.74-.68-1.64-.68-2.68v-.02c0-1.01.23-1.89.68-2.64.43-.74,1.08-1.31,1.89-1.73.81-.41,1.76-.63,2.86-.65v-2.91h3.11v2.88c1.1.02,2.05.25,2.86.65.81.41,1.42.97,1.87,1.71.43.74.68,1.64.68,2.68v.02c0,1.01-.23,1.89-.68,2.64-.43.74-1.08,1.31-1.89,1.73-.81.41-1.76.63-2.86.68v3h-3.11l.02-3h0Zm.05-7.73c-.43.02-.83.14-1.17.34s-.61.54-.79.92-.27.88-.27,1.42v.02c0,.59.09,1.06.27,1.44.18.38.43.7.77.92.32.2.72.32,1.17.34v-5.43h.02v.02Zm4.21,5.05c.32-.2.61-.54.79-.92s.27-.88.27-1.42v-.02c0-.56-.09-1.04-.27-1.42-.18-.38-.43-.72-.77-.92-.32-.2-.72-.32-1.17-.34v5.41c.41-.02.81-.14,1.15-.36Z"/><path class="cls-1" d="m117.58,13.63h3.18v1.76h.07c.18-.61.54-1.08,1.01-1.42s1.06-.54,1.73-.54c.45,0,.88.09,1.24.25s.68.38.92.72c.25.29.41.7.5,1.13h.07c.11-.41.32-.79.63-1.1.29-.29.65-.56,1.06-.74s.86-.25,1.33-.25c.65,0,1.19.14,1.69.41.47.27.86.68,1.13,1.17s.41,1.08.41,1.76v6.62h-3.18v-5.83c0-.5-.11-.9-.34-1.15s-.59-.38-1.04-.38c-.27,0-.54.07-.74.2-.2.14-.36.32-.47.56-.11.23-.16.5-.16.86v5.79h-3.04v-5.86c0-.5-.11-.88-.34-1.13s-.59-.38-1.01-.38c-.27,0-.54.07-.74.2-.2.14-.36.32-.47.56-.11.23-.18.54-.18.86v5.79h-3.18v-9.8h-.07v-.05Z"/><path class="cls-1" d="m135.8,23.43c-.25-.05-.38-.07-.41-.09v-2.61c.09.02.2.05.36.05.14.02.29.02.45.02.23,0,.45-.02.65-.07.2-.05.38-.11.56-.23.16-.11.32-.25.45-.43l-4.21-9.66h3.47l2.46,6.53h.09l2.32-6.53h3.47l-3.96,9.24c-.36.83-.77,1.51-1.17,2.1-.41.59-.92,1.01-1.51,1.28-.59.29-1.28.43-2.14.43-.34.05-.63.02-.88-.02Z"/><path class="cls-1" d="m152.29,19.57h-3.2v3.81h-3.18v-9.75h3.18v3.6h3.2v-3.6h3.18v9.75h-3.18v-3.81Z"/><path class="cls-1" d="m158.65,23.13c-.5-.29-.88-.72-1.15-1.26s-.38-1.22-.38-1.98v-6.29h3.18v5.59c0,.56.14.99.38,1.31.25.32.65.45,1.17.45.34,0,.63-.07.88-.23s.43-.36.59-.65c.14-.27.2-.61.2-.95v-5.52h3.18v9.75h-3.2v-1.73h-.07c-.25.63-.63,1.08-1.1,1.42-.5.34-1.1.5-1.87.5-.7.02-1.31-.11-1.8-.41Z"/><path class="cls-1" d="m67.05,19.48l-.27-.14-29.65-14.58c-.74-.36-1.62-.36-2.37.02L5.28,19.57l-.02.02c-.79.43-1.31,1.19-1.37,2.1-.07.88.32,1.73,1.04,2.25l3.22,2.43.05,3.45v3.45c-.59.63-.97,1.49-.97,2.41,0,2.07,1.78,3.69,3.87,3.47,1.58-.16,2.88-1.42,3.09-3,.16-1.08-.2-2.07-.83-2.79v-3.54l-.05-4.78c-.02-.79-.38-1.58-1.04-2.05l-.92-.7,24.62-12.28,24.13,11.89-24.13,12.1-12.3-6.24,3.99-2.14,1.33-.77c.34.09.68.16,1.04.16,2.1,0,3.74-1.82,3.47-3.96-.2-1.62-1.55-2.91-3.2-3.04-1.6-.11-2.97.81-3.54,2.19l-2.12,1.15-7.79,4.12c-.86.45-1.4,1.33-1.42,2.3-.02.99.54,1.89,1.4,2.34l2.41,1.22,7.16,3.63v.02l8.36,4.26c.74.36,1.62.36,2.37-.02l13.54-7.16v10l-14.78,7.52-13.16-6.56v-2.46c.59-.63.95-1.46.95-2.41,0-2.07-1.8-3.72-3.9-3.47-1.58.18-2.86,1.44-3.06,3-.14,1.06.2,2.07.86,2.79v4.1c0,.99.56,1.89,1.44,2.32l15.75,7.84c.36.18.77.27,1.15.27.41,0,.81-.09,1.17-.27l17.35-8.83c.88-.45,1.4-1.33,1.4-2.32v-13.85l10.9-5.52.38-.2c.74-.45,1.24-1.28,1.24-2.23.07-1.01-.47-1.87-1.28-2.3ZM12.13,35.64c0,.77-.63,1.4-1.4,1.4s-1.4-.63-1.4-1.4.63-1.4,1.4-1.4,1.4.61,1.4,1.4Zm17.89-15.54c.77,0,1.4.63,1.4,1.4s-.63,1.4-1.4,1.4-1.4-.63-1.4-1.4c.05-.77.65-1.4,1.4-1.4Zm-9.75,19.44c-.77,0-1.4-.63-1.4-1.4s.63-1.4,1.4-1.4,1.4.63,1.4,1.4c-.02.79-.65,1.4-1.4,1.4Z"/></svg>